<?xml version="1.0" standalone="no"?><!DOCTYPE svg PUBLIC "-//W3C//DTD SVG 1.1//EN" "http://www.w3.org/Graphics/SVG/1.1/DTD/svg11.dtd"><svg t="1703428180665" class="icon" viewBox="0 0 1024 1024" version="1.1" xmlns="http://www.w3.org/2000/svg" p-id="888" xmlns:xlink="http://www.w3.org/1999/xlink" width="200" height="200"><path d="M734.958 687L628.98 581.02c-6.639-6.638-6.639-17.402 0-24.04 6.64-6.64 17.403-6.64 24.042 0L755 658.957v-298.07L544.67 569.42c-18.745 16.543-45.734 16.543-63.744 0.687a69332.75 69332.75 0 0 1-35.79-35.202L293.042 687h441.916zM270 661.958L420.9 511.06c-34.998-34.434-85.297-83.928-150.9-148.482v202.351c0 9.39-7.611 17-17 17s-17-7.61-17-17v-209.73C236 326.922 258.92 304 287.198 304h450.604C766.08 304 789 326.92 789 355.199V669.8C789 698.08 766.08 721 737.802 721H287.198C258.92 721 236 698.08 236 669.801V643.37c0-9.389 7.611-17 17-17s17 7.611 17 17v18.59zM729.794 338H293.498L503.68 544.835a13.677 13.677 0 0 0 17.479 0.017L729.794 338z" fill="#2c2c2c" p-id="889"></path></svg>